<svg xmlns="http://www.w3.org/2000/svg" viewBox="0 0 1000 998.51"><defs><style>.cls-1{fill:#5e5929;}.cls-2{fill:#f2f1ea;}</style></defs><g id="Layer_2" data-name="Layer 2"><g id="Layer_1-2" data-name="Layer 1"><path class="cls-1" d="M998.48,497.17C978.55,164.9,804.15,0,504.05,0,209.28,0,16.38,147.45.88,497.17-15.66,873,202.77,998.51,497.53,998.51S1020.89,872.56,998.48,497.17Z"/><g id="Layer_2-2" data-name="Layer 2"><g id="Layer_1-2-2" data-name="Layer 1-2"><path class="cls-2" d="M379.87,363a148.92,148.92,0,0,0-77.44-23.2s-103.15-1.48-103.52,0,0,349.18,1,350.11,69.19,2.68,72.35.38L273,555c51.55.75,64.34-3.13,82.49-8.53,15.91-4.74,63.34-32,66.95-83.42C424.9,428,411.32,383.85,379.87,363ZM350.59,469.57a40.8,40.8,0,0,1-27.77,17.77c-14.17,2.23-48.78,2.71-50.36,1.2s-.65-90.36,1.24-91.77,23.65-1.41,30.93-.79c9.45.82,21.28,2,32.9,13.27s14,15.81,16.12,29.69c2,12,.34,24.37-3.06,30.66Z"/><path class="cls-2" d="M808.24,469.5C803,381.82,757,338.3,677.77,338.3,600,338.3,549.08,377.21,545,469.5c-4.36,99.16,53.28,132.3,131.06,132.3S814.15,568.56,808.24,469.5ZM673.3,549.76c-46.09,0-54.07-32.35-54.07-83.9,0-46.27,14.58-83.8,56.06-84.56,45.55-.86,55.2,38.43,55.2,84.69C730.49,518.41,729.08,549.76,673.3,549.76Z"/><path class="cls-2" d="M706.19,670.54a23,23,0,0,1-2.82,9.21,13.38,13.38,0,0,1-5.08,5.26l-2.37,1.61a35.28,35.28,0,0,1-13.48,3.75,14.41,14.41,0,0,1-1.61,0,64.54,64.54,0,0,1-10.31-.41,24.76,24.76,0,0,1-15.06-8.22,18.35,18.35,0,0,1-3.44-6.22,18.81,18.81,0,0,1-1.1-5.81V667a8.34,8.34,0,0,0,0-1v-1.82a22.05,22.05,0,0,1,.21-3.75,31.42,31.42,0,0,1,1.72-7.08,29.28,29.28,0,0,1,2.78-5.43,17.86,17.86,0,0,1,6.88-5.94,30.79,30.79,0,0,1,10-3.1,53.63,53.63,0,0,1,15.64.59,36.61,36.61,0,0,1,6.12,2.51,16.55,16.55,0,0,1,6.87,5.08,18.88,18.88,0,0,1,3.78,6.5A36.51,36.51,0,0,1,706.5,663a56.05,56.05,0,0,1,0,6.08v1.07"/></g></g></g></g></svg>