<svg xmlns="http://www.w3.org/2000/svg" viewBox="0 0 496.11 102.98"><defs><style>.cls-1{fill:#231f20;}</style></defs><g id="Layer_2" data-name="Layer 2"><g id="Layer_1-2" data-name="Layer 1"><path class="cls-1" d="M375.67,7A43.39,43.39,0,0,0,353.15.19s-30-.42-30.13,0,0,101.6.28,101.87,20.13.78,21.05.1l.23-39.36c15,.21,18.71-.91,24-2.48C373.22,58.93,387,51,388.06,36,388.77,25.83,384.82,13,375.67,7Zm-8.52,31a11.81,11.81,0,0,1-8.07,5.16c-4.13.66-14.19.8-14.66.36s-.18-26.29.36-26.71,6.88-.4,9-.22c2.75.24,6.2.58,9.58,3.86s4.08,4.6,4.69,8.64C368.62,32.56,368.14,36.13,367.15,38Z"/><path class="cls-1" d="M270.33,7A43.41,43.41,0,0,0,247.8.19s-30-.42-30.12,0,0,101.6.28,101.87,20.13.78,21,.1l.22-39.36c15,.21,18.72-.91,24-2.48,4.63-1.38,18.43-9.3,19.48-24.27C283.43,25.83,279.48,13,270.33,7Zm-8.52,31a11.81,11.81,0,0,1-8.07,5.16c-4.13.66-14.2.8-14.66.36s-.19-26.29.36-26.71,6.88-.4,9-.22c2.75.24,6.19.58,9.57,3.86s4.09,4.6,4.7,8.64C263.28,32.56,262.8,36.13,261.81,38Z"/><path class="cls-1" d="M52.71,7.43A43.34,43.34,0,0,0,30.18.68S.17.25.06.67s0,101.59.28,101.86,20.13.78,21.05.11l.22-39.37c15,.22,18.72-.91,24-2.48,4.63-1.38,18.43-9.3,19.48-24.27C65.81,26.32,61.86,13.49,52.71,7.43Zm-8.52,31a11.87,11.87,0,0,1-8.08,5.17c-4.12.65-14.19.79-14.65.35s-.19-26.29.36-26.7,6.88-.41,9-.23c2.75.24,6.19.58,9.57,3.86s4.08,4.6,4.69,8.64C45.66,33,45.18,36.61,44.19,38.44Z"/><path class="cls-1" d="M177.34,38.41C175.81,12.9,162.42.24,139.38.24c-22.63,0-37.44,11.32-38.63,38.17-1.27,28.85,15.5,38.49,38.13,38.49S179.06,67.23,177.34,38.41ZM138.08,61.76c-13.41,0-15.73-9.41-15.73-24.41,0-13.46,4.24-24.38,16.31-24.6,13.25-.25,16.06,11.18,16.06,24.64C154.72,52.64,154.31,61.76,138.08,61.76Z"/><path class="cls-1" d="M147.65,96.9a6.76,6.76,0,0,1-.82,2.68,3.89,3.89,0,0,1-1.48,1.53l-.69.47a10.26,10.26,0,0,1-3.92,1.09,3.75,3.75,0,0,1-.47,0,18.73,18.73,0,0,1-3-.12,7.21,7.21,0,0,1-4.38-2.39,5.31,5.31,0,0,1-1-1.81,5.47,5.47,0,0,1-.32-1.69c0-.27,0-.55,0-.79a2.64,2.64,0,0,0,0-.29c0-.18,0-.36,0-.53,0-.38,0-.73.06-1.09a9.14,9.14,0,0,1,.5-2.06,8.4,8.4,0,0,1,.81-1.58,5.22,5.22,0,0,1,2-1.73,9,9,0,0,1,2.91-.9,15.66,15.66,0,0,1,4.55.17,10.6,10.6,0,0,1,1.78.73,4.82,4.82,0,0,1,2,1.48,5.52,5.52,0,0,1,1.1,1.89,10.72,10.72,0,0,1,.46,2.75,17.4,17.4,0,0,1,0,1.77c0,.1,0,.2,0,.31"/><path class="cls-1" d="M416.49,1.26c.44-.66,20.56-1,22.17-.28,1.93.84,17.63,36,19,36.25.9.17,14.91-35.84,15.62-36.25,1-.57,22.39-.76,22.81,0C496.72,2.1,468.79,56.57,468,61.9c-.46,3.18,1.2,39.42,0,40.31-.84.63-20.28,1.35-20.06,0,.56-3.44-.4-36.13-.7-38.19C446.11,56.38,415.91,2.13,416.49,1.26Z"/></g></g></svg>